<svg id="Layer_1" data-name="Layer 1" xmlns="http://www.w3.org/2000/svg" xmlns:xlink="http://www.w3.org/1999/xlink" viewBox="0 0 48.59 42.45"><defs><style>.cls-1{fill:url(#linear-gradient);}</style><linearGradient id="linear-gradient" x1="1488.47" y1="-2237.36" x2="1537.05" y2="-2237.36" gradientTransform="matrix(1, 0, 0, -1, -1195.05, -2215.61)" gradientUnits="userSpaceOnUse"><stop offset="0" stop-color="#ffd334"/><stop offset="0.32" stop-color="#fecc2f"/><stop offset="0.76" stop-color="#fcba21"/><stop offset="1" stop-color="#fbad18"/></linearGradient></defs><title>favicon</title><path class="cls-1" d="M294.42,11.87h41.8a.92.92,0,0,0,.86-.58l3.84-9.49a.92.92,0,0,0-.5-1.2.89.89,0,0,0-.36-.07H294.4a.93.93,0,0,0-.93.93v9.48a.94.94,0,0,0,.9,1h0Zm0,15.71h30.93a.92.92,0,0,0,.86-.58l3.66-9.16a.92.92,0,0,0-.5-1.2.89.89,0,0,0-.36-.07H294.42a.93.93,0,0,0-.93.93v9.16a.92.92,0,0,0,.89.95Zm0,15.37h42.33a.92.92,0,0,0,.84-.54l4.3-9.11a1.06,1.06,0,0,0-.48-1.42,1.19,1.19,0,0,0-.41-.11H294.42a1,1,0,0,0-1,1v9.12a1,1,0,0,0,.91,1.09h.07Z" transform="translate(-293.42 -0.53)"/></svg>